<?xml version="1.0" encoding="utf-8"?>
<!-- Generator: Adobe Illustrator 22.0.0, SVG Export Plug-In . SVG Version: 6.00 Build 0)  -->
<svg version="1.1" id="Layer_1" xmlns="http://www.w3.org/2000/svg" xmlns:xlink="http://www.w3.org/1999/xlink" x="0px" y="0px"
	 viewBox="0 0 840.2 789.4" style="enable-background:new 0 0 840.2 789.4;" xml:space="preserve">
<style type="text/css">
	.st0{fill:#006600;}
</style>
<path d="M563.1,1.4H46.9C26.5,1.4,10,17.9,10,38.2v24.6c0,20.4,16.5,36.9,36.9,36.9c0,139.8,78.4,257.7,185.7,295
	C125.3,432,46.9,549.9,46.9,689.7c-20.4,0-36.9,16.5-36.9,36.9v24.6c0,20.4,16.5,36.9,36.9,36.9h516.3c20.4,0,36.9-16.5,36.9-36.9
	v-24.6c0-20.4-16.5-36.9-36.9-36.9c0-139.8-78.4-257.7-185.7-295c107.3-37.3,185.7-155.2,185.7-295c20.4,0,36.9-16.5,36.9-36.9V38.2
	C600,17.9,583.5,1.4,563.1,1.4z M464.8,689.7H145.2c0-119,71-221.3,159.8-221.3C393.8,468.5,464.8,570.7,464.8,689.7z"/>
<path class="st0" d="M815.4,357.4H703.5V245.6c0-13.7-11.1-24.9-24.9-24.9h-24.8c-13.7,0-24.8,11.1-24.8,24.9v111.8H517.2
	c-13.7,0-24.9,11.1-24.9,24.9v24.8c0,13.7,11.1,24.9,24.9,24.9H629v111.8c0,13.7,11.1,24.9,24.8,24.9h24.8
	c13.7,0,24.9-11.1,24.9-24.9V432h111.8c13.7,0,24.8-11.1,24.8-24.9v-24.8C840.2,368.6,829.1,357.4,815.4,357.4z"/>
</svg>
