<?xml version="1.0" encoding="utf-8"?>
<!-- Generator: Adobe Illustrator 22.0.0, SVG Export Plug-In . SVG Version: 6.00 Build 0)  -->
<svg version="1.1" id="Layer_1" xmlns="http://www.w3.org/2000/svg" xmlns:xlink="http://www.w3.org/1999/xlink" x="0px" y="0px"
	 viewBox="0 0 840.2 789.4" style="enable-background:new 0 0 840.2 789.4;" xml:space="preserve">
<style type="text/css">
	.st0{fill:#FF0000;}
</style>
<g>
	<path d="M225.4,381.3c69.9,0,126.6-56.7,126.6-126.6s-56.7-126.6-126.6-126.6S98.8,184.7,98.8,254.7S155.5,381.3,225.4,381.3z
		 M314.1,413h-16.5c-22,10.1-46.4,15.8-72.1,15.8s-50.1-5.7-72.1-15.8h-16.5c-73.4,0-133,59.6-133,133v41.2
		c0,26.2,21.3,47.5,47.5,47.5h348.2c26.2,0,47.5-21.3,47.5-47.5v-41.2C447,472.5,387.5,413,314.1,413z"/>
</g>
<path class="st0" d="M674,437.7c51.8,0,93.8-42,93.8-93.8s-42-93.8-93.8-93.8s-93.8,42-93.8,93.8S622.2,437.7,674,437.7z
	 M739.7,461.2h-12.2c-16.3,7.5-34.4,11.7-53.4,11.7s-37.1-4.2-53.4-11.7h-12.2c-54.4,0-98.5,44.1-98.5,98.5v30.5
	c0,19.4,15.8,35.2,35.2,35.2h257.9c19.4,0,35.2-15.8,35.2-35.2v-30.5C838.1,505.3,794,461.2,739.7,461.2z"/>
<g>
	<path d="M582.9,108.2c-21.3-24-55.4-41.6-96.6-49.7c-74-14.6-153.5,5.5-192.7,47.5c-2.9,3.1-8.5,4.5-13.8,3.4L225,98.6
		c-7.2-1.4-10.6-6.7-7.1-11C272.2,20.7,394.1-13.9,510,9.1C573.5,21.7,623.5,49.2,653.6,84l44.6-15.3c18.9-6.5,40.5,5,34.2,18.2
		l-39.3,82.8c-3.9,8.2-17.3,12.8-30,10.3L535,154.6c-20.4-4-23.1-22.1-4.2-28.5L582.9,108.2z"/>
</g>
<path class="st0" d="M310.1,706.3c25.5,19.4,62.4,30.1,104.4,30.1c75.4,0,149.5-35.1,179.9-83.9c2.2-3.6,7.5-6.1,12.9-6l55.9,0
	c7.3,0,11.7,4.5,9.1,9.4C631.9,732,519,789.5,400.8,789.4c-64.7-0.1-119.1-17.4-155.4-45.7l-40.8,23.6c-17.3,10-40.7,2.9-37.1-11.2
	l22.5-88.8c2.2-8.8,14.5-15.9,27.4-15.9l130.6,0.1c20.8,0,26.9,17.2,9.6,27.1L310.1,706.3z"/>
</svg>
